<?xml version="1.0" standalone="no"?>
<!DOCTYPE svg PUBLIC "-//W3C//DTD SVG 20010904//EN"
 "http://www.w3.org/TR/2001/REC-SVG-20010904/DTD/svg10.dtd">
<svg version="1.0" xmlns="http://www.w3.org/2000/svg"
 width="500.000000pt" height="500.000000pt" viewBox="0 0 500.000000 500.000000"
 preserveAspectRatio="xMidYMid meet">
<metadata>
Created by potrace 1.11, written by Peter Selinger 2001-2013
</metadata>
<g transform="translate(0.000000,500.000000) scale(0.100000,-0.100000)"
fill="#000000" stroke="none">
<path d="M2265 4738 c-242 -24 -521 -105 -750 -217 -457 -224 -812 -579 -1036
-1036 -421 -861 -248 -1895 431 -2575 680 -679 1714 -852 2575 -431 457 224
812 579 1036 1036 421 861 248 1895 -431 2575 -479 478 -1149 716 -1825 648z
m900 -1953 l0 -110 -660 0 -660 0 -3 99 c-1 55 0 106 2 113 5 11 124 13 663
11 l658 -3 0 -110z m0 -580 l0 -110 -660 0 -660 0 -3 99 c-1 55 0 106 2 113 5
11 124 13 663 11 l658 -3 0 -110z"/>
</g>
</svg>
